<?xml version="1.0" encoding="utf-8"?>
<!-- Svg Vector Icons : http://www.onlinewebfonts.com/icon -->
<!DOCTYPE svg PUBLIC "-//W3C//DTD SVG 1.1//EN" "http://www.w3.org/Graphics/SVG/1.1/DTD/svg11.dtd">
<svg version="1.1" xmlns="http://www.w3.org/2000/svg" xmlns:xlink="http://www.w3.org/1999/xlink" x="0px" y="0px" viewBox="0 0 256 256" enable-background="new 0 0 256 256" xml:space="preserve">
<metadata> Svg Vector Icons : http://www.onlinewebfonts.com/icon </metadata>
<g><g><path fill="currentColor" d="M218.6,10H37.4c-5,0-9.1,4.1-9.1,9.1v217.6c0,5,4.1,9.1,9.1,9.1c0,0,81.3,0,135,0c49.6,0,55.3,3,55.3-9.1c0,0,0-15.8,0-39c0-62.6,0-178.6,0-178.6C227.7,14.1,223.7,10,218.6,10z M128,177.7H64.5V155H128V177.7z M191.5,127.8H64.5v-22.7h126.9L191.5,127.8L191.5,127.8z M191.5,78H64.5V55.3h126.9L191.5,78L191.5,78z"/></g></g>
</svg>