<?xml version="1.0" encoding="utf-8"?>
<!-- Svg Vector Icons : http://www.onlinewebfonts.com/icon -->
<!DOCTYPE svg PUBLIC "-//W3C//DTD SVG 1.1//EN" "http://www.w3.org/Graphics/SVG/1.1/DTD/svg11.dtd">
<svg version="1.1" xmlns="http://www.w3.org/2000/svg" xmlns:xlink="http://www.w3.org/1999/xlink" x="0px" y="0px" viewBox="0 0 256 256" enable-background="new 0 0 256 256" xml:space="preserve">
<metadata> Svg Vector Icons : http://www.onlinewebfonts.com/icon </metadata>
<g><g><path fill="currentColor" d="M128,246c-64.8,0-118-53.2-118-118C10,63.2,63.2,10,128,10c64.8,0,118,53.2,118,118C246,192.8,192.8,246,128,246z M128,22.5C69.8,22.5,22.5,69.8,22.5,128c0,58.2,47.4,105.5,105.5,105.5c58.2,0,105.5-47.4,105.5-105.5C233.5,69.8,186.2,22.5,128,22.5z"/><path fill="#000000" d="M128,49.9c-43.2,0-78.1,34.9-78.1,78.1s34.9,78.1,78.1,78.1c43.2,0,78.1-34.9,78.1-78.1C206.1,84.8,171.2,49.9,128,49.9z M177.8,85.6c9.2,10,14.1,23.3,15.8,38.2c-14.1-0.8-30.8-0.8-44.9,0.8c-1.7-4.2-3.3-8.3-5-12.5C158.8,104.7,171.2,95.6,177.8,85.6z M128,62.4c15.8,0,30.8,5.8,41.5,15c-7.5,9.2-18.3,16.6-32.4,22.4C129.6,85.6,120.5,74,111.4,64C117.2,63.2,122.2,62.4,128,62.4z M98.1,69.8c9.2,9.2,18.3,21.6,25.8,35.7c-15,4.2-31.6,7.5-49.8,7.5c-3.3,0-6.6,0-10,0C69.8,93.9,82.3,78.2,98.1,69.8z M63.2,124.7c3.3,0,7.5,0,11.6,0c20.8,0,39.9-3.3,56.5-9.2c1.7,3.3,3.3,6.6,4.2,10c-2.5,0.8-4.2,0.8-5.8,1.7c-22.4,9.2-39.9,24.9-49.8,43.2c-10-11.6-16.6-26.6-16.6-43.2C62.4,127.2,62.4,126.3,63.2,124.7z M128,193.6c-15,0-29.1-5-39.9-14.1c8.3-17.5,24.1-31.6,44-40.7c1.7-0.8,4.2-1.7,7.5-2.5c2.5,6.6,4.2,13.3,6.6,19.9c2.5,10.8,5,21.6,5.8,31.6C143.8,192,136.3,193.6,128,193.6z M163.7,182.8c-0.8-10.8-3.3-21.6-5.8-32.4c-1.7-5-3.3-10.8-5-15.8c12.5-0.8,28.2-0.8,40.7,0C191.2,155.4,179.5,172.9,163.7,182.8z"/></g></g>
</svg>