<?xml version="1.0" encoding="utf-8"?>
<!-- Svg Vector Icons : http://www.onlinewebfonts.com/icon -->
<!DOCTYPE svg PUBLIC "-//W3C//DTD SVG 1.1//EN" "http://www.w3.org/Graphics/SVG/1.1/DTD/svg11.dtd">
<svg version="1.1" xmlns="http://www.w3.org/2000/svg" xmlns:xlink="http://www.w3.org/1999/xlink" x="0px" y="0px" viewBox="0 0 256 256" enable-background="new 0 0 256 256" xml:space="preserve">
<metadata> Svg Vector Icons : http://www.onlinewebfonts.com/icon </metadata>
<g><g><path fill="currentColor" d="M10,20.9L10,20.9L10,20.9z"/><path fill="currentColor" d="M138.8,35.7c0,0-46.3,0-61.7,0c-27.7,0-53.7,21-53.7,45.3c0,24.8,18.9,44.9,47,44.9c2,0,3.9,0,5.7-0.2c-1.8,3.5-3.1,7.4-3.1,11.5c0,6.9,3.7,12.5,8.4,17c-3.5,0-7,0.1-10.7,0.1c-34.3,0-60.7,21.8-60.7,44.5c0,22.3,28.9,36.3,63.2,36.3c39.1,0,60.7-22.2,60.7-44.5c0-17.9-5.3-28.6-21.6-40.1c-5.6-3.9-16.3-13.6-16.3-19.2c0-6.6,1.9-9.9,11.8-17.6c10.3-8,17.5-19.2,17.5-32.3c0-15.5-6.9-30.7-19.9-35.7H125L138.8,35.7L138.8,35.7z M117.3,186.7c0.5,2.1,0.8,4.2,0.8,6.4c0,18-11.6,32.1-44.9,32.1c-23.7,0-40.8-15-40.8-33c0-17.7,21.2-32.4,44.9-32.1c5.5,0,10.7,1,15.4,2.5C105.4,171.5,114.7,176.5,117.3,186.7L117.3,186.7z M79.3,119.5c-15.9-0.5-31-17.8-33.8-38.7c-2.7-20.9,7.9-36.9,23.8-36.4c15.9,0.5,31,17.2,33.8,38.1C105.9,103.5,95.2,120,79.3,119.5z M201.8,79.9V35.7H187v44.3h-44.2v14.8H187V139h14.8V94.7H246V79.9L201.8,79.9L201.8,79.9z"/></g></g>
</svg>