<?xml version="1.0" encoding="utf-8"?>
<!-- Svg Vector Icons : http://www.onlinewebfonts.com/icon -->
<!DOCTYPE svg PUBLIC "-//W3C//DTD SVG 1.1//EN" "http://www.w3.org/Graphics/SVG/1.1/DTD/svg11.dtd">
<svg version="1.1" xmlns="http://www.w3.org/2000/svg" xmlns:xlink="http://www.w3.org/1999/xlink" x="0px" y="0px" viewBox="0 0 256 256" enable-background="new 0 0 256 256" xml:space="preserve">
<metadata> Svg Vector Icons : http://www.onlinewebfonts.com/icon </metadata>
<g><g><path fill="currentColor" d="M224.5,92c0,56.3-31.3,98.3-77.4,98.3c-15.5,0-30-8.4-34.9-17.9c-8.4,33-10.1,39.3-10.1,39.3c-3,11-9.1,22-14.5,30.6c-15.4,10.9-16.8-5.9-16.8-5.9c-0.4-10.1-0.2-22.2,2.5-33c0,0,2.8-11.6,18.4-77.9c-4.6-9.2-4.6-22.8-4.6-22.8c0-21.3,12.3-37.1,27.6-37.1c13.1,0,19.4,9.9,19.4,21.6c0,13.1-8.4,32.6-12.7,50.7c-3.5,15.3,7.6,27.6,22.6,27.6c27.2,0,45.5-34.8,45.5-76.1c0-31.5-21.2-55-59.7-55c-43.4,0-70.5,32.5-70.5,68.6c0,12.5,3.7,21.3,9.5,28.2c2.6,3.2,3,4.3,2,8c-0.7,2.6-2.2,9-3,11.4c-0.9,3.7-3.9,5-7.1,3.7c-20-8.3-29.3-30.3-29.3-54.9C31.5,58.9,65.8,10,133.7,10C188.5,10,224.5,49.7,224.5,92L224.5,92z"/></g></g>
</svg>