<?xml version="1.0" encoding="utf-8"?>
<!-- Svg Vector Icons : http://www.onlinewebfonts.com/icon -->
<!DOCTYPE svg PUBLIC "-//W3C//DTD SVG 1.1//EN" "http://www.w3.org/Graphics/SVG/1.1/DTD/svg11.dtd">
<svg version="1.1" xmlns="http://www.w3.org/2000/svg" xmlns:xlink="http://www.w3.org/1999/xlink" x="0px" y="0px" viewBox="0 0 256 256" enable-background="new 0 0 256 256" xml:space="preserve">
<metadata> Svg Vector Icons : http://www.onlinewebfonts.com/icon </metadata>
<g><g><g><path fill="currentColor" d="M85.9,208.1c0,10.5-3.7,19.4-11.1,26.8c-7.4,7.4-16.4,11.1-26.8,11.1c-10.5,0-19.4-3.7-26.8-11.1c-7.4-7.4-11.1-16.4-11.1-26.8s3.7-19.4,11.1-26.8c7.4-7.4,16.4-11.1,26.8-11.1c10.5,0,19.4,3.7,26.8,11.1S85.9,197.6,85.9,208.1z M170.1,246h-50.6c0-14.8-2.9-29-8.7-42.5c-5.8-13.5-13.6-25.2-23.4-35c-9.8-9.8-21.5-17.6-35-23.4c-13.5-5.8-27.7-8.7-42.5-8.7V85.9c21.7,0,42.4,4.3,62.2,12.8c19.7,8.5,36.7,19.9,51,34.2c14.3,14.3,25.7,31.3,34.2,51C165.9,203.6,170.1,224.3,170.1,246z M246,246h-50.6c0-25.1-4.9-49.1-14.8-72c-9.8-22.9-23-42.6-39.6-59.1C124.6,98.4,104.9,85.2,82,75.3c-22.9-9.8-46.9-14.7-72-14.7V10c32,0,62.5,6.2,91.7,18.7c29.1,12.5,54.2,29.3,75.3,50.3s37.9,46.2,50.3,75.3C239.8,183.5,246,214,246,246z"/></g></g></g>
</svg>