<?xml version="1.0" encoding="utf-8"?>
<!-- Svg Vector Icons : http://www.onlinewebfonts.com/icon -->
<!DOCTYPE svg PUBLIC "-//W3C//DTD SVG 1.1//EN" "http://www.w3.org/Graphics/SVG/1.1/DTD/svg11.dtd">
<svg version="1.1" xmlns="http://www.w3.org/2000/svg" xmlns:xlink="http://www.w3.org/1999/xlink" x="0px" y="0px" viewBox="0 0 256 256" enable-background="new 0 0 256 256" xml:space="preserve">
<metadata> Svg Vector Icons : http://www.onlinewebfonts.com/icon </metadata>
<g><g><g><path fill="currentColor" d="M194.8,11.7c-5.2,0.9-9.4,1.7-9.5,1.8c-0.2,0.1,15.7,91.3,15.9,91.5c0.2,0.2,19-3,19.3-3.3c0.1-0.1-14.7-86.4-15.6-90.7c-0.1-0.6-0.3-1-0.4-1C204.3,10,200,10.8,194.8,11.7z"/><path fill="#000000" d="M136.9,35c-4.4,3-8,5.6-8,5.7c0,0.5,52,76.6,52.4,76.6c0.6,0,16.2-10.8,16.1-11.1c-0.2-0.6-52.1-76.6-52.3-76.6C144.9,29.5,141.2,32,136.9,35z"/><path fill="currentColor" d="M92.5,81.6c-2.8,4.7-5,8.6-4.9,8.6c0.5,0.4,79.8,47,80,47c0.2,0,2.2-3.3,4.6-7.3c2.4-4,4.6-7.8,5-8.4l0.7-1.1L138,96.8c-22-12.9-40.1-23.6-40.2-23.6C97.7,73.1,95.3,76.9,92.5,81.6z"/><path fill="currentColor" d="M75.7,120.7c-3.4,12.5-4.6,17.3-4.4,17.4c0.4,0.2,88.2,23.8,89,23.9c0.6,0.1,1-1.1,3.2-9.3c1.4-5.2,2.4-9.5,2.4-9.6c-0.2-0.2-88.7-24-89.3-24C76.3,119.1,75.9,119.8,75.7,120.7z"/><path fill="currentColor" d="M35.5,197.5V246h76.9h76.9l0.3-3.4c0.1-1.9,0.2-23.7,0.1-48.4l-0.1-45l-8-0.1l-8-0.1v40.8v40.8h-61h-61v-40.8V149h-7.9h-7.9V197.5z"/><path fill="currentColor" d="M67.2,160.5c0,0.1-0.4,4.5-0.9,9.8c-0.5,5.3-0.8,9.8-0.8,9.8c0.2,0.1,92.5,8.6,92.6,8.5c0.2-0.2,1.8-19.4,1.7-19.6c-0.1-0.1-20.4-2-45-4.3c-24.6-2.2-45.4-4.2-46.2-4.3C67.8,160.5,67.2,160.5,67.2,160.5z"/><path fill="currentColor" d="M64.6,204.7v10l46.4,0c25.5,0,46.5-0.1,46.5-0.2c0.1-0.1,0.1-4.5,0-9.9l-0.1-9.8h-46.4H64.6V204.7z"/></g></g></g>
</svg>