<?xml version="1.0" encoding="utf-8"?>
<!-- Svg Vector Icons : http://www.onlinewebfonts.com/icon -->
<!DOCTYPE svg PUBLIC "-//W3C//DTD SVG 1.1//EN" "http://www.w3.org/Graphics/SVG/1.1/DTD/svg11.dtd">
<svg version="1.1" xmlns="http://www.w3.org/2000/svg" xmlns:xlink="http://www.w3.org/1999/xlink" x="0px" y="0px" viewBox="0 0 256 256" enable-background="new 0 0 256 256" xml:space="preserve">
<metadata> Svg Vector Icons : http://www.onlinewebfonts.com/icon </metadata>
<g><g><path fill="currentColor" d="M172.6,128.3l-66.6,43.6c-0.8,0.5-1.7,0.8-2.6,0.8c-0.8,0-1.6-0.2-2.4-0.6c-1.6-0.9-2.6-2.6-2.6-4.4V80.5c0-1.8,1-3.5,2.6-4.4c1.6-0.9,3.5-0.8,5,0.2l66.6,43.6c1.4,0.9,2.3,2.5,2.3,4.2C174.9,125.8,174,127.4,172.6,128.3 M207.3,42.5H48.7C27.4,42.5,10,60.3,10,82.1v91.8c0,21.9,17.4,39.6,38.7,39.6h158.6c21.3,0,38.7-17.8,38.7-39.6V82.1C246,60.3,228.6,42.5,207.3,42.5"/></g></g>
</svg>